<mxfile host="Electron" modified="2024-01-01T18:10:50.974Z" agent="Mozilla/5.0 (Windows NT 10.0; Win64; x64) AppleWebKit/537.36 (KHTML, like Gecko) draw.io/22.1.2 Chrome/114.0.5735.289 Electron/25.9.4 Safari/537.36" etag="YXAZ-yv0cyk6tLBlsf3F" version="22.1.2" type="device">
  <diagram name="第 1 页" id="cuTMky20KGvpGhmbmXvz">
    <mxGraphModel dx="1100" dy="809" grid="0" gridSize="10" guides="1" tooltips="1" connect="1" arrows="1" fold="1" page="1" pageScale="1" pageWidth="827" pageHeight="1169" math="0" shadow="0">
      <root>
        <mxCell id="0" />
        <mxCell id="1" parent="0" />
        <mxCell id="5L96iLdSYFRIV454qG3H-8" value="" style="rounded=0;whiteSpace=wrap;html=1;dashed=1;" vertex="1" parent="1">
          <mxGeometry x="320" y="200" width="480" height="140" as="geometry" />
        </mxCell>
        <mxCell id="5L96iLdSYFRIV454qG3H-4" style="edgeStyle=orthogonalEdgeStyle;rounded=0;orthogonalLoop=1;jettySize=auto;html=1;exitX=1;exitY=0.5;exitDx=0;exitDy=0;entryX=0;entryY=0.5;entryDx=0;entryDy=0;" edge="1" parent="1" source="5L96iLdSYFRIV454qG3H-1" target="5L96iLdSYFRIV454qG3H-2">
          <mxGeometry relative="1" as="geometry" />
        </mxCell>
        <mxCell id="5L96iLdSYFRIV454qG3H-1" value="Receptionist" style="rounded=0;whiteSpace=wrap;html=1;" vertex="1" parent="1">
          <mxGeometry x="80" y="240" width="120" height="60" as="geometry" />
        </mxCell>
        <mxCell id="5L96iLdSYFRIV454qG3H-5" style="edgeStyle=orthogonalEdgeStyle;rounded=0;orthogonalLoop=1;jettySize=auto;html=1;exitX=1;exitY=0.5;exitDx=0;exitDy=0;entryX=0;entryY=0.5;entryDx=0;entryDy=0;" edge="1" parent="1" source="5L96iLdSYFRIV454qG3H-2" target="5L96iLdSYFRIV454qG3H-3">
          <mxGeometry relative="1" as="geometry" />
        </mxCell>
        <mxCell id="5L96iLdSYFRIV454qG3H-2" value="Interceptor" style="rounded=0;whiteSpace=wrap;html=1;" vertex="1" parent="1">
          <mxGeometry x="360" y="240" width="120" height="60" as="geometry" />
        </mxCell>
        <mxCell id="5L96iLdSYFRIV454qG3H-11" style="edgeStyle=orthogonalEdgeStyle;rounded=0;orthogonalLoop=1;jettySize=auto;html=1;exitX=1;exitY=0.5;exitDx=0;exitDy=0;entryX=0;entryY=0.5;entryDx=0;entryDy=0;" edge="1" parent="1" source="5L96iLdSYFRIV454qG3H-3" target="5L96iLdSYFRIV454qG3H-10">
          <mxGeometry relative="1" as="geometry" />
        </mxCell>
        <mxCell id="5L96iLdSYFRIV454qG3H-3" value="Loader" style="rounded=0;whiteSpace=wrap;html=1;" vertex="1" parent="1">
          <mxGeometry x="640" y="240" width="120" height="60" as="geometry" />
        </mxCell>
        <mxCell id="5L96iLdSYFRIV454qG3H-6" value="data before processing" style="text;html=1;align=center;verticalAlign=middle;resizable=0;points=[];autosize=1;strokeColor=none;fillColor=none;" vertex="1" parent="1">
          <mxGeometry x="210" y="240" width="150" height="30" as="geometry" />
        </mxCell>
        <mxCell id="5L96iLdSYFRIV454qG3H-7" value="data after processing" style="text;html=1;align=center;verticalAlign=middle;resizable=0;points=[];autosize=1;strokeColor=none;fillColor=none;" vertex="1" parent="1">
          <mxGeometry x="490" y="240" width="140" height="30" as="geometry" />
        </mxCell>
        <mxCell id="5L96iLdSYFRIV454qG3H-9" value="optional" style="text;html=1;align=center;verticalAlign=middle;resizable=0;points=[];autosize=1;strokeColor=none;fillColor=none;" vertex="1" parent="1">
          <mxGeometry x="525" y="340" width="70" height="30" as="geometry" />
        </mxCell>
        <mxCell id="5L96iLdSYFRIV454qG3H-10" value="Threejs" style="rounded=0;whiteSpace=wrap;html=1;" vertex="1" parent="1">
          <mxGeometry x="920" y="240" width="120" height="60" as="geometry" />
        </mxCell>
        <mxCell id="5L96iLdSYFRIV454qG3H-12" value="threejs object" style="text;html=1;align=center;verticalAlign=middle;resizable=0;points=[];autosize=1;strokeColor=none;fillColor=none;" vertex="1" parent="1">
          <mxGeometry x="800" y="240" width="90" height="30" as="geometry" />
        </mxCell>
      </root>
    </mxGraphModel>
  </diagram>
</mxfile>
